<?xml version="1.0" encoding="UTF-8"?>
<svg version="1.1" xmlns="http://www.w3.org/2000/svg" width="500" height="500">
<path d="M0 0 C1.04106903 -0.0071553 2.08213806 -0.01431061 3.15475464 -0.02168274 C4.30728226 -0.02437164 5.45980988 -0.02706055 6.64726257 -0.02983093 C7.85398621 -0.03640213 9.06070984 -0.04297333 10.30400085 -0.04974365 C14.32556908 -0.06955928 18.34709713 -0.08116989 22.36869812 -0.09111023 C23.75784512 -0.09515902 25.14699193 -0.09927598 26.53613853 -0.10346031 C33.08009199 -0.1225467 39.62403409 -0.13675576 46.16801006 -0.14507228 C53.68083213 -0.15477968 61.19335443 -0.18091172 68.7060712 -0.22157317 C74.53226034 -0.25200208 80.35836511 -0.26656719 86.184632 -0.26985329 C89.65288936 -0.27217876 93.12082797 -0.2808006 96.58899879 -0.30631447 C115.95293764 -0.44136258 134.77085261 0.20463197 152.81791687 7.95967102 C153.64783142 8.30441467 154.47774597 8.64915833 155.33280945 9.00434875 C161.55465285 11.67417647 166.93560422 14.86452869 172.19291687 19.14717102 C172.94315125 19.67697571 173.69338562 20.2067804 174.46635437 20.75263977 C180.8482834 25.33760926 185.47060832 30.90852486 190.19291687 37.14717102 C190.82326843 37.95154602 191.45362 38.75592102 192.10307312 39.58467102 C205.89135121 58.00944702 209.53506742 81.38828471 206.44291687 103.77217102 C203.41115039 120.6337764 197.43229847 135.10330155 186.19291687 148.14717102 C185.65151062 148.82006165 185.11010437 149.49295227 184.55229187 150.18623352 C179.30410024 156.53801685 173.03433904 161.58622291 166.19291687 166.14717102 C168.36121318 171.86580403 171.37377342 177.02304725 174.38041687 182.33467102 C174.93278015 183.32531555 175.48514343 184.31596008 176.054245 185.33662415 C181.78903721 197.2179376 181.78903721 197.2179376 191.19291687 205.14717102 C193.25654678 205.2974709 195.32415602 205.3956155 197.39213562 205.46357727 C198.60063171 205.5054718 199.80912781 205.54736633 201.054245 205.5905304 C202.31688171 205.6298468 203.57951843 205.66916321 204.88041687 205.70967102 C206.79177429 205.77444641 206.79177429 205.77444641 208.741745 205.8405304 C211.89202539 205.94671962 215.04238526 206.04876635 218.19291687 206.14717102 C219.3756628 209.6954088 219.30721026 212.4964212 219.28666687 216.24092102 C219.28308167 216.94503113 219.27949646 217.64914124 219.27580261 218.37458801 C219.21555319 226.46898617 218.96119202 234.55750486 218.69291687 242.64717102 C218.644508 244.16409072 218.59633001 245.68101781 218.54838562 247.19795227 C218.43254068 250.84778035 218.31363082 254.49750034 218.19291687 258.14717102 C214.28269643 258.29239454 210.37237946 258.4346574 206.46195984 258.57441711 C204.49331832 258.64535486 202.52475672 258.71849959 200.55619812 258.79170227 C176.37364996 259.65098063 157.22204998 257.30716655 138.19291687 241.14717102 C131.5841361 233.45993003 126.59359249 224.98881206 121.81791687 216.08467102 C120.53134684 213.71801244 119.2387834 211.35464022 117.94682312 208.99092102 C117.31792175 207.83721008 116.68902039 206.68349915 116.0410614 205.49482727 C112.91686275 199.83577682 109.64554173 194.26327995 106.34184265 188.70747375 C103.19291687 183.35696338 103.19291687 183.35696338 103.19291687 181.14717102 C88.01291687 181.14717102 72.83291687 181.14717102 57.19291687 181.14717102 C57.19291687 206.55717102 57.19291687 231.96717102 57.19291687 258.14717102 C48.78906897 258.79362086 40.63188758 259.29694424 32.23979187 259.27998352 C30.63953156 259.28141861 30.63953156 259.28141861 29.00694275 259.28288269 C26.7819869 259.28355644 24.55702898 259.28175911 22.33207703 259.27754211 C18.90934453 259.27211782 15.48673946 259.27754687 12.06401062 259.28388977 C9.89343741 259.28323009 7.72286429 259.28195123 5.55229187 259.27998352 C4.52641968 259.28200775 3.50054749 259.28403198 2.44358826 259.28611755 C1.50460693 259.28296539 0.56562561 259.27981323 -0.40180969 259.27656555 C-1.23085815 259.27576996 -2.05990662 259.27497437 -2.91407776 259.27415466 C-4.80708313 259.14717102 -4.80708313 259.14717102 -5.80708313 258.14717102 C-5.90441933 256.77200027 -5.93263724 255.39186346 -5.93292427 254.01325226 C-5.93683589 252.66834174 -5.93683589 252.66834174 -5.94082654 251.29626131 C-5.93859581 250.29988256 -5.93636509 249.30350381 -5.93406677 248.27693176 C-5.93562676 247.22730995 -5.93718675 246.17768813 -5.93879402 245.09625959 C-5.94280897 241.55006509 -5.93961246 238.00391278 -5.93647766 234.4577179 C-5.93783148 231.92720515 -5.93961131 229.39669259 -5.94178772 226.86618042 C-5.9458882 220.68901817 -5.9452687 214.51187176 -5.94237508 208.33470929 C-5.94012127 203.31662402 -5.93980843 198.29854217 -5.9408989 193.28045654 C-5.94105213 192.56761292 -5.94120536 191.85476929 -5.94136324 191.12032434 C-5.94168295 189.67242261 -5.94200716 188.22452087 -5.94233583 186.77661914 C-5.94519079 173.18370051 -5.94190335 159.59078862 -5.93653546 145.9978711 C-5.93206741 134.32188567 -5.93284334 122.64591018 -5.93745422 110.96992493 C-5.94279971 97.42730117 -5.94491609 83.88468332 -5.94184196 70.34205866 C-5.94152339 68.89933427 -5.94120902 67.45660989 -5.9408989 66.0138855 C-5.94074462 65.30394486 -5.94059034 64.59400422 -5.94043139 63.86255023 C-5.93956616 58.84759471 -5.94102925 53.83264293 -5.94337845 48.81768799 C-5.94646778 42.07416988 -5.94428408 35.33067353 -5.93848419 28.5871563 C-5.93715583 26.10423756 -5.93755198 23.62131725 -5.93974686 21.13839912 C-5.9424554 17.76471434 -5.93908087 14.39109108 -5.93406677 11.01741028 C-5.93629749 10.02103153 -5.93852822 9.02465278 -5.94082654 7.99808073 C-5.93821879 7.10147372 -5.93561104 6.2048667 -5.93292427 5.28108978 C-5.93276192 4.50130658 -5.93259957 3.72152337 -5.93243229 2.91811037 C-5.66995682 -0.79015642 -3.13566391 0.01473127 0 0 Z M57.19291687 53.14717102 C57.19291687 77.89717102 57.19291687 102.64717102 57.19291687 128.14717102 C60.23508347 129.16122655 62.2281785 129.2592473 65.40776062 129.2323761 C66.47317078 129.22519058 67.53858093 129.21800507 68.63627625 129.21060181 C69.78934265 129.19611496 70.94240906 129.18162811 72.13041687 129.16670227 C73.32086609 129.15257797 74.51131531 129.13845367 75.73783875 129.12390137 C78.2631095 129.09075182 80.78833982 129.05439152 83.31352234 129.01509094 C87.14964755 128.96028915 90.98542463 128.9314317 94.82182312 128.9030304 C97.27887826 128.86753813 99.73591135 128.83047764 102.19291687 128.79170227 C103.89822571 128.78515373 103.89822571 128.78515373 105.63798523 128.7784729 C117.91298631 128.5202123 127.43384824 124.84299728 136.19291687 116.14717102 C143.56759437 106.90285697 145.05235588 95.68593554 144.19291687 84.14717102 C142.36099644 73.76111364 137.11287793 65.83425345 128.63432312 59.65107727 C121.85461665 55.47477808 114.64350522 53.01540362 106.68998718 53.03364563 C105.57382019 53.03376648 104.4576532 53.03388733 103.30766296 53.03401184 C101.55703552 53.04168579 101.55703552 53.04168579 99.77104187 53.04951477 C98.69386902 53.05052185 97.61669617 53.05152893 96.50688171 53.05256653 C92.48554926 53.05779601 88.46423199 53.07175728 84.44291687 53.08467102 C75.45041687 53.10529602 66.45791687 53.12592102 57.19291687 53.14717102 Z " fill="#F4F4EF" transform="translate(267.8070831298828,118.85282897949219)"/>
<path d="M0 0 C2.73242571 0.00706878 5.46484723 0.00837456 8.19728088 0.00996399 C13.88821414 0.01636579 19.5789288 0.03745706 25.26977539 0.0690918 C32.58041206 0.10967665 39.8909082 0.12683032 47.20164394 0.13640118 C53.50254366 0.14468154 59.80341361 0.16190111 66.10428739 0.18143868 C67.4544037 0.18548848 68.80452098 0.18922791 70.15463901 0.19266105 C74.57507436 0.2039076 78.99539275 0.22404007 83.41577148 0.2487793 C84.53718033 0.2514682 85.65858917 0.2541571 86.8139801 0.25692749 C87.82717316 0.26408279 88.84036621 0.2712381 89.88426208 0.27861023 C90.76960349 0.28288371 91.6549449 0.28715719 92.56711483 0.29156017 C94.56640625 0.42578125 94.56640625 0.42578125 95.56640625 1.42578125 C95.69422731 2.97948709 95.75472402 4.53880395 95.78759766 6.09741211 C95.81077057 7.09191879 95.83394348 8.08642548 95.8578186 9.11106873 C95.87766815 10.1933223 95.8975177 11.27557587 95.91796875 12.390625 C95.95269791 14.04609093 95.95269791 14.04609093 95.98812866 15.73500061 C96.03585069 18.07450626 96.08107445 20.41406397 96.12402344 22.75366211 C96.19105441 26.34443348 96.26881392 29.93486143 96.34765625 33.52539062 C96.39257559 35.792956 96.43686739 38.0605339 96.48046875 40.328125 C96.51631577 41.94846901 96.51631577 41.94846901 96.55288696 43.60154724 C96.56975555 44.59920609 96.58662415 45.59686493 96.60400391 46.62475586 C96.62945786 47.94593666 96.62945786 47.94593666 96.65542603 49.29380798 C96.56640625 51.42578125 96.56640625 51.42578125 95.56640625 53.42578125 C94.99564078 53.4281696 94.42487532 53.43055796 93.83681393 53.43301868 C79.93113264 53.49222577 66.02562595 53.56799984 52.12013149 53.66149616 C45.39545194 53.70640908 38.67082481 53.74583398 31.94604492 53.7722168 C25.45554776 53.79823699 18.96528426 53.83863103 12.47493172 53.88896751 C9.99947072 53.90564478 7.52396931 53.91715368 5.04846001 53.92339516 C1.5795025 53.93302652 -1.88885604 53.96107586 -5.35766602 53.9934082 C-6.89083969 53.99125557 -6.89083969 53.99125557 -8.45498657 53.98905945 C-15.64897495 54.08380581 -20.63720409 54.94716315 -26.18359375 59.86328125 C-26.92609375 60.70890625 -27.66859375 61.55453125 -28.43359375 62.42578125 C-28.99046875 63.02390625 -29.54734375 63.62203125 -30.12109375 64.23828125 C-33.94688415 70.61459859 -33.91731225 77.33954167 -32.43359375 84.42578125 C-31.05145253 87.77739371 -31.05145253 87.77739371 -29.43359375 90.42578125 C-29.10359375 91.41578125 -28.77359375 92.40578125 -28.43359375 93.42578125 C-26.68491892 94.51009219 -26.68491892 94.51009219 -24.43359375 95.42578125 C-23.50546875 95.94140625 -22.57734375 96.45703125 -21.62109375 96.98828125 C-14.41333416 100.2388395 -6.48972145 99.55961099 1.26953125 99.56640625 C3.80339428 99.58475167 6.33724867 99.60432355 8.87109375 99.625 C12.82664468 99.65377651 16.7816428 99.67577692 20.73730469 99.67626953 C48.78512025 99.7009533 71.7576307 103.4545022 92.671875 123.4375 C102.28458071 133.4964435 107.44203669 145.04571275 110.56640625 158.42578125 C110.8279248 159.33106567 110.8279248 159.33106567 111.09472656 160.25463867 C115.69410812 181.42560151 110.36041758 205.78862857 99.31640625 224.05078125 C86.58436028 243.23188529 68.92808166 253.83161577 46.56640625 258.42578125 C42.93149647 258.88360409 39.32911066 259.02348243 35.66796875 259.10546875 C34.55563873 259.13849091 33.44330872 259.17151306 32.29727173 259.20553589 C12.589527 259.69744522 -7.13692413 259.57494765 -26.84912109 259.55615234 C-32.9229765 259.55037047 -38.99678853 259.55380096 -45.07064247 259.55972481 C-49.76814101 259.5633214 -54.46562906 259.5621975 -59.1631279 259.55959702 C-61.40633525 259.5589296 -63.64954355 259.5597497 -65.89274979 259.56207657 C-68.99574622 259.56459727 -72.09866925 259.56077476 -75.20166016 259.55517578 C-76.12812347 259.55720001 -77.05458679 259.55922424 -78.00912476 259.56130981 C-84.31931314 259.54006186 -84.31931314 259.54006186 -85.43359375 258.42578125 C-85.52699809 256.79903347 -85.55104546 255.16824074 -85.54711914 253.53881836 C-85.54704361 252.49781479 -85.54696808 251.45681122 -85.54689026 250.38426208 C-85.54172897 249.25198685 -85.53656769 248.11971161 -85.53125 246.953125 C-85.52983505 245.80034561 -85.5284201 244.64756622 -85.52696228 243.45985413 C-85.5213438 239.76097061 -85.50878817 236.06214661 -85.49609375 232.36328125 C-85.49108113 229.86263108 -85.48651781 227.36197996 -85.48242188 224.86132812 C-85.47136837 218.71612537 -85.45461227 212.57095756 -85.43359375 206.42578125 C-83.07648533 205.24722704 -81.69810547 205.30741184 -79.07089233 205.31898499 C-78.15414734 205.32050064 -77.23740234 205.3220163 -76.2928772 205.32357788 C-75.28405487 205.33031525 -74.27523254 205.33705261 -73.23583984 205.34399414 C-72.17550537 205.3470607 -71.1151709 205.35012726 -70.02270508 205.35328674 C-67.7134972 205.36045528 -65.40429543 205.3698522 -63.09510422 205.38118172 C-59.43820543 205.39852679 -55.7813501 205.40885762 -52.12442017 205.417099 C-41.72434366 205.44158726 -31.32432534 205.47703165 -20.92431641 205.52172852 C-14.56780002 205.54855373 -8.21131786 205.56557101 -1.8547554 205.57659721 C0.56689082 205.58279803 2.98853045 205.5927921 5.41014481 205.6066761 C8.80423529 205.62595264 12.19814719 205.63279731 15.59228516 205.63696289 C16.5889621 205.64572449 17.58563904 205.65448608 18.61251831 205.66351318 C28.42045945 205.64981317 35.87974613 203.77826762 43.56640625 197.42578125 C48.47124346 191.51482359 50.22321384 185.04474933 49.56640625 177.42578125 C48.34289748 172.48984518 46.86939443 168.35791003 43.56640625 164.42578125 C43.56640625 163.76578125 43.56640625 163.10578125 43.56640625 162.42578125 C42.97874481 162.13891449 42.39108337 161.85204773 41.78561401 161.55648804 C39.56640625 160.42578125 39.56640625 160.42578125 37.84353638 159.37442017 C31.89083258 155.90529275 26.45334353 155.8549186 19.68359375 155.88671875 C18.55172638 155.87492584 17.41985901 155.86313293 16.25369263 155.85098267 C12.64945677 155.81584496 9.04579895 155.80657299 5.44140625 155.80078125 C-26.00008489 155.65635938 -53.2500645 153.61253647 -77.18359375 130.98828125 C-87.63647446 120.14280408 -94.24118507 105.41002277 -95.68359375 90.48828125 C-95.76295166 89.67125732 -95.84230957 88.8542334 -95.92407227 88.01245117 C-97.86837792 65.2090558 -93.06116132 44.64588529 -78.24609375 26.67578125 C-68.99787689 15.99695359 -57.79414967 8.87682808 -44.43359375 4.42578125 C-43.45891647 4.09023224 -42.4842392 3.75468323 -41.48002625 3.40896606 C-27.83015752 -0.64420823 -14.12558538 -0.09799684 0 0 Z " fill="#F4F4EF" transform="translate(117.43359375,118.57421875)"/>
<path d="M0 0 C1.52056 -0.00639748 1.52056 -0.00639748 3.07183838 -0.01292419 C4.75417824 -0.01224442 4.75417824 -0.01224442 6.47050476 -0.0115509 C8.2313591 -0.01658882 8.2313591 -0.01658882 10.02778625 -0.02172852 C13.25724147 -0.02962491 16.48665818 -0.03290755 19.71612191 -0.0335443 C22.40989374 -0.0344921 25.10365935 -0.03816907 27.79742879 -0.0417164 C34.1534638 -0.04986954 40.50948465 -0.05229993 46.86552429 -0.05158997 C53.42462588 -0.05098957 59.98364511 -0.06153165 66.54272586 -0.07733363 C72.16994213 -0.0904081 77.79713149 -0.09577387 83.42436284 -0.09513456 C86.78692876 -0.09487945 90.14942161 -0.09773705 93.51197243 -0.10831261 C97.26384483 -0.11807918 101.01550413 -0.11524735 104.76737976 -0.10920715 C105.88286697 -0.11482666 106.99835419 -0.12044617 108.14764404 -0.12623596 C109.16981018 -0.12204147 110.19197632 -0.11784698 111.24511719 -0.11352539 C112.13242681 -0.11407016 113.01973642 -0.11461493 113.93393421 -0.1151762 C116.31303406 0.13371277 116.31303406 0.13371277 120.31303406 2.13371277 C79.06303406 2.13371277 37.81303406 2.13371277 -4.68696594 2.13371277 C-4.35696594 86.28371277 -4.02696594 170.43371277 -3.68696594 257.13371277 C-2.69696594 257.13371277 -1.70696594 257.13371277 -0.68696594 257.13371277 C-0.68696594 257.79371277 -0.68696594 258.45371277 -0.68696594 259.13371277 C-2.33696594 258.80371277 -3.98696594 258.47371277 -5.68696594 258.13371277 C-5.70983147 225.41045476 -5.72746374 192.68719881 -5.73803127 159.96393463 C-5.73928205 156.10475585 -5.74057636 152.24557708 -5.74189758 148.38639832 C-5.74215989 147.61807263 -5.7424222 146.84974694 -5.74269246 146.05813866 C-5.74704932 133.60104857 -5.75493696 121.14396307 -5.76411874 108.68687571 C-5.77345484 95.91434101 -5.77902146 83.14180872 -5.78105444 70.36927074 C-5.78242976 62.48154181 -5.78678082 54.59382587 -5.79488241 46.70610093 C-5.80077 40.66806174 -5.80142502 34.63003382 -5.80007362 28.59199142 C-5.80035016 26.10745984 -5.80235793 23.6229278 -5.80617142 21.13839912 C-5.81110164 17.76247457 -5.80996672 14.38660685 -5.80722046 11.01068115 C-5.8101333 10.01362028 -5.81304614 9.01655941 -5.81604725 7.98928457 C-5.8140562 7.09206086 -5.81206515 6.19483715 -5.81001377 5.27042484 C-5.81039349 4.49009956 -5.81077321 3.70977429 -5.81116444 2.90580279 C-5.55370611 -0.76766625 -3.11425751 0.00588934 0 0 Z " fill="#F3FEE1" transform="translate(267.6869659423828,118.86628723144531)"/>
<path d="M0 0 C0.99 0 1.98 0 3 0 C3 25.41 3 50.82 3 77 C-0.96 77 -4.92 77 -9 77 C-9 76.67 -9 76.34 -9 76 C-4.05 75.505 -4.05 75.505 1 75 C0.67 50.25 0.34 25.5 0 0 Z " fill="#ECFCDC" transform="translate(322,300)"/>
<path d="M0 0 C0.66 0 1.32 0 2 0 C2 24.75 2 49.5 2 75 C1.01 74.67 0.02 74.34 -1 74 C-1.02315469 64.79456595 -1.04093108 55.58914191 -1.05181217 46.38368511 C-1.05703414 42.10937663 -1.06411938 37.83508805 -1.07543945 33.56079102 C-1.08629265 29.43704342 -1.09228202 25.31331499 -1.09487724 21.18955421 C-1.09672709 19.61506664 -1.1003393 18.04058013 -1.10573006 16.46610069 C-1.11297274 14.26342871 -1.11398957 12.06083624 -1.11352539 9.8581543 C-1.115746 8.60350876 -1.11796661 7.34886322 -1.12025452 6.05619812 C-1 3 -1 3 0 0 Z " fill="#EDFCDD" transform="translate(323,172)"/>
<path d="M0 0 C0.99 0.495 0.99 0.495 2 1 C-7.93103448 9 -7.93103448 9 -14 9 C-14.33 9.33 -14.66 9.66 -15 10 C-16.71865409 10.0935919 -18.44115744 10.11744611 -20.16235352 10.11352539 C-21.26341934 10.11344986 -22.36448517 10.11337433 -23.49891663 10.11329651 C-24.6968132 10.10813522 -25.89470978 10.10297394 -27.12890625 10.09765625 C-28.34827377 10.0962413 -29.5676413 10.09482635 -30.82395935 10.09336853 C-34.7368307 10.08774967 -38.64964581 10.07519396 -42.5625 10.0625 C-45.20768147 10.05748743 -47.85286383 10.0529241 -50.49804688 10.04882812 C-56.99871726 10.03777411 -63.49935461 10.02101764 -70 10 C-70 9.34 -70 8.68 -70 8 C-69.00307381 7.99453156 -69.00307381 7.99453156 -67.98600769 7.98895264 C-61.02556243 7.94691912 -54.06576381 7.87742856 -47.10571289 7.79248047 C-44.51333098 7.76437439 -41.92086503 7.74310871 -39.32836914 7.72900391 C-35.58696788 7.70743134 -31.84656622 7.66070492 -28.10546875 7.609375 C-26.38604317 7.60753204 -26.38604317 7.60753204 -24.63188171 7.60565186 C-15.48976895 7.44181636 -7.25776717 5.85858094 0 0 Z " fill="#E8FBDF" transform="translate(398,239)"/>
<path d="M0 0 C1.98 0.66 3.96 1.32 6 2 C4 4 4 4 1 5 C0.67 20.51 0.34 36.02 0 52 C4.95 52 9.9 52 15 52 C15 52.33 15 52.66 15 53 C12.5211787 53.19389096 10.04219069 53.38040123 7.5625 53.5625 C6.50192383 53.64661133 6.50192383 53.64661133 5.41992188 53.73242188 C3.61572163 53.86190993 1.80768048 53.93521608 0 54 C-1.65408456 52.34591544 -1.12742355 50.40446108 -1.12939453 48.12890625 C-1.13254669 47.09113037 -1.13569885 46.05335449 -1.13894653 44.98413086 C-1.1369223 43.85499268 -1.13489807 42.72585449 -1.1328125 41.5625 C-1.13424759 39.83688843 -1.13424759 39.83688843 -1.13571167 38.07641602 C-1.13639369 35.63850856 -1.1345379 33.2005993 -1.13037109 30.76269531 C-1.12502317 27.01623482 -1.13031539 23.26989423 -1.13671875 19.5234375 C-1.13605797 17.16145807 -1.13477682 14.79947871 -1.1328125 12.4375 C-1.13483673 11.30836182 -1.13686096 10.17922363 -1.13894653 9.01586914 C-1.13579437 7.97809326 -1.13264221 6.94031738 -1.12939453 5.87109375 C-1.12859894 4.95255615 -1.12780334 4.03401855 -1.12698364 3.08764648 C-1 1 -1 1 0 0 Z " fill="#ECFDDF" transform="translate(33,324)"/>
<path d="M0 0 C9.9 0.33 19.8 0.66 30 1 C31.18224668 4.54674003 30.89329634 6.97522995 30.5625 10.6875 C30.46066406 11.86699219 30.35882813 13.04648437 30.25390625 14.26171875 C30.17011719 15.16535156 30.08632813 16.06898438 30 17 C29.67 17 29.34 17 29 17 C28.67 12.38 28.34 7.76 28 3 C25.34517578 3.05220703 25.34517578 3.05220703 22.63671875 3.10546875 C20.32032197 3.13360312 18.00391495 3.16090366 15.6875 3.1875 C13.93663086 3.22520508 13.93663086 3.22520508 12.15039062 3.26367188 C11.03212891 3.27333984 9.91386719 3.28300781 8.76171875 3.29296875 C7.73006592 3.3086792 6.69841309 3.32438965 5.63549805 3.34057617 C3 3 3 3 0 0 Z " fill="#EAFCDC" transform="translate(456,324)"/>
<path d="M0 0 C10.56 0 21.12 0 32 0 C31.01 1.485 31.01 1.485 30 3 C27.11083984 3.2487793 27.11083984 3.2487793 23.4609375 3.07421875 C22.15898438 3.01943359 20.85703125 2.96464844 19.515625 2.90820312 C18.13539916 2.83496465 16.75519098 2.76139261 15.375 2.6875 C13.98704234 2.62424925 12.59902084 2.5623829 11.2109375 2.50195312 C7.80641755 2.34827688 4.40319378 2.18036232 1 2 C0.67 1.34 0.34 0.68 0 0 Z " fill="#EAFBDE" transform="translate(87,325)"/>
<path d="M0 0 C0.70125 0.28875 1.4025 0.5775 2.125 0.875 C0.57057941 1.9112804 -0.9853435 2.94566081 -2.55859375 3.953125 C-10.18873657 9.05121597 -12.61904779 15.22718319 -14.875 23.875 C-16.106394 20.18081799 -15.51932764 17.6693739 -14.875 13.875 C-15.865 13.875 -16.855 13.875 -17.875 13.875 C-17.545 12.885 -17.215 11.895 -16.875 10.875 C-15.555 11.535 -14.235 12.195 -12.875 12.875 C-12.875 10.895 -12.875 8.915 -12.875 6.875 C-12.27558594 6.77445313 -11.67617187 6.67390625 -11.05859375 6.5703125 C-8.48906939 5.75210975 -7.65119131 4.79123895 -5.9375 2.75 C-3.23276634 -0.14055506 -3.23276634 -0.14055506 0 0 Z " fill="#EBFAE0" transform="translate(97.875,171.125)"/>
<path d="M0 0 C4.9535024 0.57935701 8.68957516 2.8124721 12.9375 5.25 C13.62779297 5.63285156 14.31808594 6.01570312 15.02929688 6.41015625 C19.42859663 8.90378777 23.20842479 11.65344535 27 15 C26.01 15.33 25.02 15.66 24 16 C23.525625 15.443125 23.05125 14.88625 22.5625 14.3125 C17.43346886 9.68386214 11.51567893 7.11759565 5 5 C4.67 4.34 4.34 3.68 4 3 C1.97536745 2.34786708 1.97536745 2.34786708 0 2 C0 1.34 0 0.68 0 0 Z " fill="#EBFBE0" transform="translate(180,224)"/>
<path d="M0 0 C0.99 0.33 1.98 0.66 3 1 C4.1875 4.0625 4.1875 4.0625 5 7 C4.01 7.495 4.01 7.495 3 8 C3.34933594 8.51949219 3.69867188 9.03898438 4.05859375 9.57421875 C8.57820738 16.50087873 8.57820738 16.50087873 9 21 C8.34 21 7.68 21 7 21 C6.69707031 20.35933594 6.39414062 19.71867187 6.08203125 19.05859375 C3.4543309 13.63340318 0.65006218 8.79722458 -3 4 C-2.01 4 -1.02 4 0 4 C-0.66 3.01 -1.32 2.02 -2 1 C-1.34 0.67 -0.68 0.34 0 0 Z " fill="#EDF8E2" transform="translate(403,177)"/>
<path d="M0 0 C1 2 1 2 0.25 4.3984375 C-2.93366322 11.97953555 -6.69247398 18.99871851 -11 26 C-11.62109375 24.16015625 -11.62109375 24.16015625 -12 22 C-10.71274093 20.29749607 -9.37868281 18.62935241 -8 17 C-8 16.01 -8 15.02 -8 14 C-7 13 -6 12 -5 11 C-3.82295997 8.54377325 -3.82295997 8.54377325 -2.875 5.875 C-1.08333333 1.08333333 -1.08333333 1.08333333 0 0 Z " fill="#E9FCDD" transform="translate(470,235)"/>
<path d="M0 0 C0.99 0.33 1.98 0.66 3 1 C1.0942007 2.36941868 -0.82506573 3.72011163 -2.75 5.0625 C-3.81734375 5.81660156 -4.8846875 6.57070313 -5.984375 7.34765625 C-9 9 -9 9 -11.390625 8.74609375 C-11.92171875 8.49988281 -12.4528125 8.25367188 -13 8 C-12.34 7.67 -11.68 7.34 -11 7 C-10.67 6.01 -10.34 5.02 -10 4 C-7.13548599 2.15852671 -4.31106765 1.6264182 -1 1 C-0.67 0.67 -0.34 0.34 0 0 Z " fill="#EBFAE5" transform="translate(198,360)"/>
<path d="M0 0 C0.66 0 1.32 0 2 0 C2 0.66 2 1.32 2 2 C2.99 2.33 3.98 2.66 5 3 C6.0625 5.75 6.0625 5.75 7 9 C7.65411685 10.67163195 8.31653318 12.34015202 9 14 C9.66 14 10.32 14 11 14 C11 15.65 11 17.3 11 19 C7.66725497 15.14374856 5.43500055 11.24036596 3.25 6.6875 C2.93417969 6.04232422 2.61835938 5.39714844 2.29296875 4.73242188 C1.52308292 3.15765541 0.76075109 1.5791996 0 0 Z M12 12 C12.33 12.66 12.66 13.32 13 14 C12.34 13.67 11.68 13.34 11 13 C11.33 12.67 11.66 12.34 12 12 Z " fill="#EBFBE0" transform="translate(377,311)"/>
<path d="M0 0 C10 11.53846154 10 11.53846154 10 17 C8.125 16.3125 8.125 16.3125 6 15 C4.875 12.5625 4.875 12.5625 4 10 C3.34 9.01 2.68 8.02 2 7 C2 6.01 2 5.02 2 4 C1.34 4 0.68 4 0 4 C0 2.68 0 1.36 0 0 Z " fill="#ECFCDE" transform="translate(437,294)"/>
<path d="M0 0 C5.28 0 10.56 0 16 0 C16 0.66 16 1.32 16 2 C14.73542969 2.07347656 14.73542969 2.07347656 13.4453125 2.1484375 C12.34960938 2.22320312 11.25390625 2.29796875 10.125 2.375 C8.48917969 2.47941406 8.48917969 2.47941406 6.8203125 2.5859375 C3.86953526 2.73253491 3.86953526 2.73253491 2 5 C2 3.68 2 2.36 2 1 C1.34 0.67 0.68 0.34 0 0 Z " fill="#EEF9E0" transform="translate(147,219)"/>
<path d="M0 0 C6.49142565 0.42335385 11.33492989 2.91099799 17 6 C12.59971545 7.56010089 10.15984272 6.03753658 6.12890625 4.125 C3.89486962 2.94444486 1.90898961 1.65999096 0 0 Z " fill="#EEFBE1" transform="translate(414,126)"/>
<path d="M0 0 C4.72254335 1.49132948 4.72254335 1.49132948 6.125 4.0625 C6.41375 4.701875 6.7025 5.34125 7 6 C7.99 6.33 8.98 6.66 10 7 C11.1875 10.0625 11.1875 10.0625 12 13 C11.01 13.495 11.01 13.495 10 14 C9.16121545 12.71186658 8.32913217 11.41936744 7.5 10.125 C7.0359375 9.40570313 6.571875 8.68640625 6.09375 7.9453125 C5 6 5 6 5 4 C4.360625 3.71125 3.72125 3.4225 3.0625 3.125 C1 2 1 2 0 0 Z " fill="#E7FCD8" transform="translate(156,277)"/>
<path d="M0 0 C0.66 0.33 1.32 0.66 2 1 C-6.18181818 7.59090909 -6.18181818 7.59090909 -9 9 C-10.67654729 8.72057545 -12.34608154 8.39171753 -14 8 C-11.87682683 5.87682683 -10.30392909 5.15239055 -7.5625 4 C-4.77033727 2.82241572 -2.54470078 1.69646719 0 0 Z " fill="#EDFBE0" transform="translate(398,239)"/>
<path d="M0 0 C-2.25 2.5625 -2.25 2.5625 -5 5 C-8.11189674 4.90847363 -9.34674377 3.76883749 -12 2 C-7.8803623 0.70756464 -4.33168317 -0.26252625 0 0 Z " fill="#ECFAE1" transform="translate(85,121)"/>
<path d="M0 0 C1.32830615 3.98491845 0.23204404 5.40048548 -1.4375 9.1875 C-1.91058594 10.27417969 -2.38367188 11.36085938 -2.87109375 12.48046875 C-3.42990234 13.72763672 -3.42990234 13.72763672 -4 15 C-5.22560938 11.32317186 -4.61164668 10.41830379 -3.125 6.9375 C-2.75632813 6.05964844 -2.38765625 5.18179687 -2.0078125 4.27734375 C-1.37041804 2.83702992 -0.7043828 1.40876559 0 0 Z " fill="#E9FDDE" transform="translate(224,322)"/>
<path d="M0 0 C-0.33 0.99 -0.66 1.98 -1 3 C-4.3 2.34 -7.6 1.68 -11 1 C-11 0.67 -11 0.34 -11 0 C-6.98195309 -0.84098656 -3.98196457 -1.05404945 0 0 Z " fill="#F1FBE3" transform="translate(82,268)"/>
<path d="M0 0 C0.33 0 0.66 0 1 0 C1.3125 2.1875 1.3125 2.1875 1 5 C-1.4375 7.6875 -1.4375 7.6875 -4 10 C-4.33 10.66 -4.66 11.32 -5 12 C-5.66 12 -6.32 12 -7 12 C-5.61964507 9.14940657 -4.10703513 6.44119096 -2.4375 3.75 C-2.00308594 3.04359375 -1.56867188 2.3371875 -1.12109375 1.609375 C-0.75113281 1.07828125 -0.38117188 0.5471875 0 0 Z " fill="#EAFBDF" transform="translate(408,227)"/>
<path d="M0 0 C-0.66 1.32 -1.32 2.64 -2 4 C-2.66 4 -3.32 4 -4 4 C-4 4.66 -4 5.32 -4 6 C-5.65 5.67 -7.3 5.34 -9 5 C-2.40909091 0 -2.40909091 0 0 0 Z " fill="#ECFAE5" transform="translate(159,319)"/>
<path d="M0 0 C3.39417765 3.12621626 5.6062718 5.56541027 7 10 C6.01 9.67 5.02 9.34 4 9 C3.3125 6.9375 3.3125 6.9375 3 5 C2.34 5 1.68 5 1 5 C0.67 3.35 0.34 1.7 0 0 Z " fill="#EAFCE1" transform="translate(456,155)"/>
<path d="M0 0 C4.38889325 0.66498383 7.9811485 2.18757677 12 4 C12 4.66 12 5.32 12 6 C10.55903414 5.57405412 9.12231288 5.13373367 7.6875 4.6875 C6.88699219 4.44386719 6.08648437 4.20023437 5.26171875 3.94921875 C2.90035427 2.95817977 1.66120007 1.91925057 0 0 Z " fill="#EAFCD9" transform="translate(418,368)"/>
<path d="M0 0 C1.32 0.33 2.64 0.66 4 1 C5.3125 3.9375 5.3125 3.9375 6 7 C5.67 7.66 5.34 8.32 5 9 C3.35 6.03 1.7 3.06 0 0 Z " fill="#EBFCDC" transform="translate(371,301)"/>
<path d="M0 0 C2.64 1.65 5.28 3.3 8 5 C7.01 5.33 6.02 5.66 5 6 C4.01 5.34 3.02 4.68 2 4 C1.34 4 0.68 4 0 4 C0 2.68 0 1.36 0 0 Z " fill="#EDFAE4" transform="translate(432,133)"/>
<path d="M0 0 C2.5 1.1875 2.5 1.1875 5 3 C5.3125 5.6875 5.3125 5.6875 5 8 C2.5 5.6875 2.5 5.6875 0 3 C0 2.01 0 1.02 0 0 Z " fill="#ECFBDD" transform="translate(402,352)"/>
</svg>
